<?xml version="1.0" encoding="UTF-8"?>
<svg id="Layer_2" data-name="Layer 2" xmlns="http://www.w3.org/2000/svg" viewBox="0 0 50 35">
  <g id="Layer_1-2" data-name="Layer 1">
    <path d="m48.96,5.47c-.58-2.15-2.27-3.85-4.42-4.42-3.9-1.04-19.53-1.04-19.53-1.04,0,0-15.64,0-19.53,1.04C3.31,1.62,1.62,3.31,1.04,5.47c-1.04,3.9-1.04,12.03-1.04,12.03,0,0,0,8.14,1.04,12.03.58,2.15,2.27,3.85,4.42,4.42,3.9,1.04,19.53,1.04,19.53,1.04,0,0,15.64,0,19.53-1.04,2.15-.58,3.85-2.27,4.42-4.42,1.04-3.9,1.04-12.03,1.04-12.03,0,0,0-8.14-1.04-12.03Zm-28.96,19.53v-15l12.99,7.5-12.99,7.5Z"/>
  </g>
</svg>