<?xml version="1.0" encoding="UTF-8"?>
<svg id="Layer_2" data-name="Layer 2" xmlns="http://www.w3.org/2000/svg" viewBox="0 0 123.96 14.49">
  <defs>
    <style>
      .cls-1 {
        fill: #010101;
        stroke-width: 0px;
      }
    </style>
  </defs>
  <g id="Layer_1-2" data-name="Layer 1">
    <g>
      <path class="cls-1" d="M4.66.42l3.94,4.78L12.5.42h4.69l-6.65,8.51v5.13h-3.89v-5.08L0,.42h4.66Z"/>
      <path class="cls-1" d="M20.02.42h3.33l7.25,13.65h-4.11l-1.09-2.14h-7.42l-1.09,2.14h-4.11L20.02.42ZM23.81,8.83l-2.12-4.14-2.12,4.14h4.24Z"/>
      <path class="cls-1" d="M32.34.42l8.03,7.05V.42h3.89v13.65h-1.78l-8.08-6.97v6.97h-3.89V.42h1.83Z"/>
      <path class="cls-1" d="M62.73,7.24c0,4-3.89,7.25-8.68,7.25s-8.7-3.25-8.7-7.25,3.9-7.24,8.7-7.24,8.68,3.23,8.68,7.24ZM54.05,11.05c2.81,0,5.06-1.72,5.06-3.82s-2.25-3.8-5.06-3.8-5.08,1.68-5.08,3.8,2.27,3.82,5.08,3.82Z"/>
      <path class="cls-1" d="M81.31,7.24c0,4-3.89,7.25-8.68,7.25s-8.7-3.25-8.7-7.25,3.9-7.24,8.7-7.24,8.68,3.23,8.68,7.24ZM72.62,13.49c4.22,0,7.66-2.81,7.66-6.26s-3.43-6.26-7.66-6.26-7.67,2.81-7.67,6.26,3.42,6.26,7.67,6.26Z"/>
      <path class="cls-1" d="M84.23,9.73v4.34h-1.09V.42h5.97c3.4,0,5.81,1.97,5.81,4.64s-2.24,4.66-6.43,4.66h-4.26ZM88.46,8.87c3.35,0,5.4-1.55,5.4-3.79s-1.95-3.8-4.93-3.8h-4.69v7.59h4.22Z"/>
      <path class="cls-1" d="M97.46,9.73v4.34h-1.09V.42h5.97c3.4,0,5.81,1.97,5.81,4.64s-2.24,4.66-6.43,4.66h-4.26ZM101.68,8.87c3.35,0,5.4-1.55,5.4-3.79s-1.95-3.8-4.93-3.8h-4.69v7.59h4.22Z"/>
      <path class="cls-1" d="M115.63.42h.96l7.37,13.65h-1.16l-1.51-2.81h-10.37l-1.51,2.81h-1.18L115.63.42ZM120.81,10.37l-4.69-8.73-4.71,8.73h9.41Z"/>
    </g>
  </g>
</svg>