<?xml version="1.0" encoding="UTF-8"?>
<svg id="Layer_2" data-name="Layer 2" xmlns="http://www.w3.org/2000/svg" viewBox="0 0 49.98 34.98">
  <defs>
    <style>
      .cls-1 {
        fill: #fff;
        stroke-width: 0px;
      }
    </style>
  </defs>
  <g id="Layer_2-2" data-name="Layer 2">
    <g id="Layer_1-2" data-name="Layer 1-2">
      <path class="cls-1" d="M48.96,5.46c-.58-2.15-2.27-3.85-4.42-4.42-3.9-1.04-19.53-1.04-19.53-1.04,0,0-15.64,0-19.53,1.04C3.31,1.61,1.62,3.3,1.04,5.46c-1.04,3.9-1.04,12.03-1.04,12.03,0,0,0,8.14,1.04,12.03.58,2.15,2.27,3.85,4.42,4.42,3.9,1.04,19.53,1.04,19.53,1.04,0,0,15.64,0,19.53-1.04,2.15-.58,3.85-2.27,4.42-4.42,1.04-3.9,1.04-12.03,1.04-12.03,0,0,0-8.14-1.04-12.03h.02ZM20,24.99v-15l12.99,7.5s-12.99,7.5-12.99,7.5Z"/>
    </g>
  </g>
</svg>