<?xml version="1.0" encoding="UTF-8"?>
<svg id="Layer_2" xmlns="http://www.w3.org/2000/svg" viewBox="0 0 95.93 34.97">
  <defs>
    <style>
      .cls-1 {
        fill: #fff;
      }
    </style>
  </defs>
  <g id="Layer_2-2" data-name="Layer_2">
    <path id="path1" class="cls-1" d="M44.25.43l-3.23,8.76h5.53l-4.61,11.06,4.15.46c-.46,1.24-1.07,3.56-2,4.53-.68.71-1.72.54-2.61.54-2.01,0-6.07.83-7.14-1.38-.49-1.02.21-2.3.61-3.23.84-1.94,1.95-3.93,2.38-5.99-1,0-2.27.2-3.23-.15-3.59-1.32.4-7.08,1.23-9.07.58-1.39,1.27-4.42,2.54-5.3,1.78-1.24,4.48-.38,6.38-.23M7.84,29.47c1.27,0,3.15.38,3.92-.92.82-1.38.23-4.42.23-5.99V7.34c0-1.43-.72-5.78.54-6.68,1.03-.74,5.38-.59,5.84.69.75,2.09.08,5.61.08,7.84v14.75c0,2.53.44,5.47-.61,7.84-1,2.26-5.67,4.27-7.99,2.54-1.02-.77-1.75-3.65-2-4.84M77.9.43v2.3c1.72,0,3.88-.35,5.53.15,5.52,1.69,5.07,7.11,5.07,11.83.92,0,1.86-.07,2.77.15,5.3,1.32,4.61,6.62,4.61,10.91,0,2.28.43,4.99-1.08,6.91-1.66,2.12-4.37,1.84-6.76,1.84-.74,0-1.97.24-2.61-.23-1.21-.87-1.74-3.46-2-4.84,1.52,0,4.25.52,5.45-.61,1.42-1.34.84-6.56-.85-7.45-.89-.47-2.25-.23-3.23-.23h-6.91v13.37h-6.45v-13.37h-6.45v-6.45h6.45v-5.53h-4.15V2.73h4.15V.43h6.45M63.15,2.73v6.45h-3.69v19.36h5.99v5.99h-21.2l2.46-5.76,5.84-.23V9.19h-3.69V2.73h14.29M89.42,9.19c0-1.31-.24-2.88.15-4.15,1.54-4.98,9.04-.97,5.3,3.15-.43.47-1.17.7-1.77.85-1.18.3-2.48.15-3.69.15M7.84,9.19l-1.92,17.05-3.15,5.53-2.77-7.38,1.38-15.21h6.45M29.04,9.19l1.38,15.21-2.77,6.91h-.92c-2.47-3.92-2.79-7.96-3.23-12.45-.31-3.19-.92-6.47-.92-9.68h6.45M77.9,9.19v5.53h4.15v-5.53h-4.15M43.33,28.55l-2.3,5.99h-10.14l2.46-6.22,3.53.08,6.45.15Z"/>
  </g>
</svg>